<svg width="40" height="45" viewBox="0 0 40 45" fill="none" xmlns="http://www.w3.org/2000/svg">
<path d="M20 8.11111C18.8889 8.11111 17.9352 7.71296 17.1389 6.91667C16.3426 6.12037 15.9444 5.16667 15.9444 4.05556C15.9444 2.94444 16.3426 1.99074 17.1389 1.19444C17.9352 0.398148 18.8889 0 20 0C21.1111 0 22.0648 0.398148 22.8611 1.19444C23.6574 1.99074 24.0556 2.94444 24.0556 4.05556C24.0556 5.16667 23.6574 6.12037 22.8611 6.91667C22.0648 7.71296 21.1111 8.11111 20 8.11111ZM14.0556 44.4444V14.8333C11.537 14.6481 9.10185 14.3889 6.75 14.0556C4.39815 13.7222 2.14815 13.2963 0 12.7778L0.833333 9.44444C3.98148 10.1852 7.11111 10.713 10.2222 11.0278C13.3333 11.3426 16.5926 11.5 20 11.5C23.4074 11.5 26.6667 11.3426 29.7778 11.0278C32.8889 10.713 36.0185 10.1852 39.1667 9.44444L40 12.7778C37.8519 13.2963 35.6019 13.7222 33.25 14.0556C30.8981 14.3889 28.463 14.6481 25.9444 14.8333V44.4444H22.6111V30H17.3889V44.4444H14.0556Z" fill="white"/>
</svg>
