<svg width="37" height="38" viewBox="0 0 37 38" fill="none" xmlns="http://www.w3.org/2000/svg">
<path d="M10.0507 10.1142L7.64868 7.71106L7.65797 25.0692L7.68699 25.8795C7.6986 26.2626 7.77116 26.6922 7.88726 27.1391L26.9125 33.8495L31.6724 31.7423L31.6765 31.7354L10.0495 10.1142H10.0507Z" fill="#0175C2"/>
<path d="M7.88798 27.1391H7.88972C7.88798 27.1321 7.88507 27.124 7.88159 27.1159C7.88566 27.1246 7.88565 27.1333 7.8874 27.1391H7.88798ZM31.6679 31.7423L26.908 33.8495L7.88566 27.1391C8.24846 28.5346 9.05358 30.103 9.9185 30.9587L16.1238 37.1332L29.9323 37.1506L31.6621 31.7423H31.6679Z" fill="#0175C2"/>
<path d="M7.7138 7.71162L0.31675 18.883C-0.297398 19.5389 0.00909519 20.8926 0.997652 21.8898L5.26766 26.1947L7.9518 27.1409C7.83571 26.6951 7.76257 26.2701 7.75154 25.8812L7.72251 25.0709L7.7138 7.71279V7.71162Z" fill="#0175C2"/>
<path d="M27.0692 7.93513C26.6222 7.82193 26.1939 7.75054 25.8078 7.73951L24.9499 7.70816L7.64868 7.71222L31.6759 31.736L33.7865 26.976L27.0704 7.93629L27.0692 7.93513Z" fill="#0175C2"/>
<path d="M27.0474 7.93103C27.0549 7.93393 27.063 7.93568 27.0694 7.93684V7.93451C27.0619 7.93277 27.0549 7.93277 27.0474 7.92987V7.93103ZM30.8872 9.97316C30.0136 9.09373 28.4666 8.28977 27.0694 7.93684L33.7856 26.9748L31.6726 31.7348L36.8285 30.0874L36.8401 15.9515L30.8867 9.97258L30.8872 9.97316Z" fill="#0175C2"/>
<path d="M26.1278 5.26781L21.8322 0.995473C20.8303 0.0103987 19.4767 -0.297256 18.8265 0.315731L7.65576 7.71105L24.957 7.70698L25.8149 7.73833C26.2009 7.74994 26.6299 7.82076 27.0763 7.93395L26.129 5.26664L26.1278 5.26781Z" fill="#0175C2"/>
</svg>
