<svg width="41" height="41" viewBox="0 0 41 41" fill="none" xmlns="http://www.w3.org/2000/svg">
<path d="M25.946 20.4199C25.946 20.9084 26.1401 21.3769 26.4856 21.7224C26.831 22.0678 27.2995 22.2619 27.7881 22.2619C28.2766 22.2619 28.7451 22.0678 29.0906 21.7224C29.436 21.3769 29.6301 20.9084 29.6301 20.4199C29.6301 19.9314 29.436 19.4628 29.0906 19.1174C28.7451 18.7719 28.2766 18.5779 27.7881 18.5779C27.2995 18.5779 26.831 18.7719 26.4856 19.1174C26.1401 19.4628 25.946 19.9314 25.946 20.4199Z" stroke="#F05032" stroke-width="2.5" stroke-linecap="round" stroke-linejoin="round"/>
<path d="M18.5779 13.0519C18.5779 13.5404 18.7719 14.0089 19.1174 14.3544C19.4628 14.6998 19.9314 14.8939 20.4199 14.8939C20.9084 14.8939 21.3769 14.6998 21.7224 14.3544C22.0678 14.0089 22.2619 13.5404 22.2619 13.0519C22.2619 12.5633 22.0678 12.0948 21.7224 11.7494C21.3769 11.4039 20.9084 11.2098 20.4199 11.2098C19.9314 11.2098 19.4628 11.4039 19.1174 11.7494C18.7719 12.0948 18.5779 12.5633 18.5779 13.0519Z" stroke="#F05032" stroke-width="2.5" stroke-linecap="round" stroke-linejoin="round"/>
<path d="M18.5779 27.788C18.5779 28.2765 18.7719 28.745 19.1174 29.0905C19.4628 29.4359 19.9314 29.63 20.4199 29.63C20.9084 29.63 21.3769 29.4359 21.7224 29.0905C22.0678 28.745 22.2619 28.2765 22.2619 27.788C22.2619 27.2994 22.0678 26.8309 21.7224 26.4855C21.3769 26.14 20.9084 25.9459 20.4199 25.9459C19.9314 25.9459 19.4628 26.14 19.1174 26.4855C18.7719 26.8309 18.5779 27.2994 18.5779 27.788Z" stroke="#F05032" stroke-width="2.5" stroke-linecap="round" stroke-linejoin="round"/>
<path d="M20.4199 25.9459V14.8939" stroke="#F05032" stroke-width="2.5" stroke-linecap="round" stroke-linejoin="round"/>
<path d="M25.946 18.5779L22.262 14.8939" stroke="#F05032" stroke-width="2.5" stroke-linecap="round" stroke-linejoin="round"/>
<path d="M18.5779 11.2098L15.0781 7.70996" stroke="#F05032" stroke-width="2.5" stroke-linecap="round" stroke-linejoin="round"/>
<path d="M23.0835 3.10508L37.7368 17.7564C38.4432 18.4629 38.84 19.421 38.84 20.42C38.84 21.419 38.4432 22.3771 37.7368 23.0835L23.0835 37.7368C22.3771 38.4432 21.419 38.84 20.42 38.84C19.421 38.84 18.4629 38.4432 17.7564 37.7368L3.10324 23.0835C2.39685 22.3771 2 21.419 2 20.42C2 19.421 2.39685 18.4629 3.10324 17.7564L17.7564 3.10324C18.4629 2.39685 19.421 2 20.42 2C21.419 2 22.3771 2.39869 23.0835 3.10508Z" stroke="#F05032" stroke-width="2.5" stroke-linecap="round" stroke-linejoin="round"/>
</svg>
