<svg width="35" height="36" viewBox="0 0 35 36" fill="none" xmlns="http://www.w3.org/2000/svg">
<path d="M17.4999 0.242004C13.3445 0.242181 9.32479 1.75836 6.15994 4.51925C2.99509 7.28014 0.891668 11.1056 0.226029 15.3111C-0.43961 19.5166 0.375976 23.8277 2.52685 27.4731C4.67773 31.1184 8.02354 33.8602 11.9656 35.2077C12.8406 35.3647 13.1687 34.8264 13.1687 34.3554C13.1687 33.9293 13.1468 32.5163 13.1468 31.0136C8.74999 31.8434 7.61249 29.9147 7.2625 28.9054C6.87413 27.9238 6.25849 27.0539 5.46876 26.3709C4.85626 26.0345 3.98127 25.2047 5.44687 25.1823C6.00649 25.2445 6.54323 25.4442 7.0116 25.7643C7.47998 26.0845 7.86618 26.5156 8.13749 27.0213C8.37684 27.4622 8.69868 27.8503 9.08457 28.1634C9.47045 28.4765 9.91281 28.7084 10.3863 28.8459C10.8598 28.9835 11.355 29.0238 11.8438 28.9647C12.3325 28.9056 12.805 28.7483 13.2343 28.5016C13.3101 27.5894 13.7065 26.7366 14.3499 26.1018C10.4562 25.6533 6.3875 24.1057 6.3875 17.2427C6.36291 15.4595 7.0047 13.7341 8.18124 12.4206C7.64624 10.8708 7.70884 9.16992 8.35624 7.66582C8.35624 7.66582 9.8218 7.1948 13.1687 9.50493C16.0322 8.69747 19.0552 8.69747 21.9186 9.50493C25.2655 7.17239 26.7311 7.66582 26.7311 7.66582C27.3786 9.16989 27.4412 10.8708 26.9061 12.4206C28.0862 13.7319 28.7285 15.4587 28.6998 17.2427C28.6998 24.1281 24.6092 25.6533 20.7155 26.1018C21.1332 26.5359 21.4548 27.0569 21.6586 27.6297C21.8625 28.2024 21.9437 28.8134 21.8968 29.4212C21.8968 31.8211 21.8749 33.7499 21.8749 34.3555C21.8749 34.8265 22.203 35.3872 23.078 35.2077C27.0131 33.8492 30.3493 31.1011 32.491 27.4539C34.6328 23.8066 35.4406 19.4977 34.7703 15.2963C34.1001 11.0949 31.9954 7.27438 28.8319 4.51685C25.6684 1.75932 21.6521 0.24422 17.4999 0.242004Z" fill="white"/>
</svg>
