<svg width="30" height="31" viewBox="0 0 30 31" fill="none" xmlns="http://www.w3.org/2000/svg">
<path d="M14.9999 0.5C11.4382 0.500151 7.99268 1.79973 5.27995 4.16621C2.56722 6.53269 0.764287 9.81163 0.193739 13.4163C-0.376808 17.0211 0.322265 20.7163 2.16587 23.8409C4.00948 26.9655 6.87732 29.3156 10.2562 30.4706C11.0062 30.6052 11.2875 30.1438 11.2875 29.74C11.2875 29.3748 11.2687 28.1637 11.2687 26.8756C7.49999 27.5869 6.52499 25.9337 6.225 25.0686C5.89211 24.2272 5.36442 23.4816 4.68751 22.8962C4.16251 22.6079 3.41252 21.8966 4.66874 21.8774C5.14842 21.9307 5.60848 22.1019 6.00994 22.3763C6.41141 22.6507 6.74244 23.0203 6.97499 23.4537C7.18015 23.8316 7.45601 24.1642 7.78677 24.4326C8.11753 24.701 8.49669 24.8998 8.90253 25.0177C9.30836 25.1355 9.73289 25.1701 10.1518 25.1195C10.5707 25.0688 10.9757 24.9339 11.3437 24.7225C11.4086 23.9407 11.7485 23.2096 12.3 22.6656C8.96248 22.2811 5.475 20.9546 5.475 15.072C5.45392 13.5435 6.00403 12.0647 7.01249 10.9388C6.55392 9.61036 6.60757 8.1525 7.16249 6.86327C7.16249 6.86327 8.41869 6.45954 11.2875 8.43965C13.7419 7.74754 16.333 7.74754 18.7874 8.43965C21.6561 6.44033 22.9124 6.86327 22.9124 6.86327C23.4674 8.15248 23.521 9.61037 23.0624 10.9388C24.0739 12.0628 24.6245 13.5429 24.5999 15.072C24.5999 20.9738 21.0936 22.2811 17.7562 22.6656C18.1141 23.0376 18.3898 23.4842 18.5645 23.9751C18.7392 24.4661 18.8089 24.9898 18.7687 25.5108C18.7687 27.5678 18.7499 29.221 18.7499 29.7401C18.7499 30.1438 19.0311 30.6244 19.7811 30.4706C23.1541 29.3062 26.0137 26.9506 27.8495 23.8244C29.6852 20.6983 30.3776 17.0049 29.8031 13.4037C29.2286 9.80244 27.4246 6.52775 24.7131 4.16416C22.0015 1.80056 18.559 0.501899 14.9999 0.5Z" fill="white"/>
</svg>
