<svg width="41" height="42" viewBox="0 0 41 42" fill="none" xmlns="http://www.w3.org/2000/svg">
<path d="M38.84 2L34.235 35.3863L20.42 39.9913L6.605 35.3863L2 2H38.84Z" stroke="#F0DB4F" stroke-width="4" stroke-linecap="round" stroke-linejoin="round"/>
<path d="M10.0588 11.21H16.9663V29.63L12.3613 27.3275" stroke="#F0DB4F" stroke-width="4" stroke-linecap="round" stroke-linejoin="round"/>
<path d="M30.7813 11.21H25.025C24.7197 11.21 24.4269 11.3313 24.211 11.5472C23.9951 11.7631 23.8738 12.0559 23.8738 12.3613V19.2688C23.8738 19.5741 23.9951 19.8669 24.211 20.0828C24.4269 20.2987 24.7197 20.42 25.025 20.42H28.3015C28.4663 20.42 28.6291 20.4554 28.7791 20.5238C28.929 20.5922 29.0625 20.692 29.1705 20.8164C29.2786 20.9408 29.3587 21.087 29.4054 21.245C29.4521 21.4031 29.4643 21.5693 29.4412 21.7324L28.4788 28.4788L23.8738 29.63" stroke="#F0DB4F" stroke-width="4" stroke-linecap="round" stroke-linejoin="round"/>
</svg>
