<svg width="30" height="31" viewBox="0 0 30 31" fill="none" xmlns="http://www.w3.org/2000/svg">
<path d="M27.7817 0.50021H2.21831C1.93095 0.496243 1.64563 0.54858 1.37862 0.654233C1.11162 0.759886 0.868164 0.916785 0.662169 1.11597C0.456175 1.31515 0.291672 1.55272 0.178056 1.81511C0.0644402 2.07749 0.00393621 2.35955 0 2.64518V28.3548C0.00393621 28.6404 0.0644402 28.9225 0.178056 29.1849C0.291672 29.4473 0.456175 29.6848 0.662169 29.884C0.868164 30.0832 1.11162 30.2401 1.37862 30.3458C1.64563 30.4514 1.93095 30.5038 2.21831 30.4998H27.7817C28.069 30.5038 28.3544 30.4514 28.6214 30.3458C28.8884 30.2401 29.1318 30.0832 29.3378 29.884C29.5438 29.6848 29.7083 29.4473 29.8219 29.1849C29.9356 28.9225 29.9961 28.6404 30 28.3548V2.64518C29.9961 2.35955 29.9356 2.07749 29.8219 1.81511C29.7083 1.55272 29.5438 1.31515 29.3378 1.11597C29.1318 0.916785 28.8884 0.759886 28.6214 0.654233C28.3544 0.54858 28.069 0.496243 27.7817 0.50021ZM9.0996 25.6099H4.57243V12.11H9.0996V25.6099ZM6.83602 10.2201C6.21166 10.2201 5.61288 9.97354 5.1714 9.53471C4.72991 9.09588 4.48189 8.5007 4.48189 7.88011C4.48189 7.25951 4.72991 6.66433 5.1714 6.2255C5.61288 5.78667 6.21166 5.54014 6.83602 5.54014C7.16755 5.50277 7.50328 5.53542 7.82124 5.63596C8.1392 5.73651 8.4322 5.90267 8.68107 6.12357C8.92994 6.34448 9.12906 6.61514 9.2654 6.91784C9.40174 7.22054 9.47221 7.54846 9.47221 7.88011C9.47221 8.21176 9.40174 8.53967 9.2654 8.84237C9.12906 9.14507 8.92994 9.41574 8.68107 9.63664C8.4322 9.85754 8.1392 10.0237 7.82124 10.1243C7.50328 10.2248 7.16755 10.2574 6.83602 10.2201ZM25.4276 25.6099H20.9004V18.365C20.9004 16.55 20.2515 15.365 18.6066 15.365C18.0976 15.3687 17.6019 15.5274 17.1864 15.8198C16.7708 16.1121 16.4555 16.524 16.2827 17C16.1646 17.3525 16.1134 17.7238 16.1318 18.095V25.5949H11.6046C11.6046 25.5949 11.6046 13.325 11.6046 12.095H16.1318V14C16.5431 13.2907 17.1412 12.7063 17.8618 12.3098C18.5825 11.9134 19.3982 11.7198 20.2213 11.7501C23.2394 11.7501 25.4276 13.685 25.4276 17.84V25.6099Z" fill="white"/>
</svg>
