<svg width="35" height="35" viewBox="0 0 35 35" fill="none" xmlns="http://www.w3.org/2000/svg">
<path d="M32.412 0.0002447H2.58803C2.25278 -0.00438332 1.9199 0.056677 1.60839 0.179939C1.29688 0.303201 1.01286 0.486249 0.772531 0.718631C0.532204 0.951012 0.340284 1.22817 0.207732 1.53429C0.0751803 1.8404 0.00459224 2.16948 0 2.50271V32.4973C0.00459224 32.8305 0.0751803 33.1596 0.207732 33.4657C0.340284 33.7718 0.532204 34.049 0.772531 34.2814C1.01286 34.5137 1.29688 34.6968 1.60839 34.8201C1.9199 34.9433 2.25278 35.0044 2.58803 34.9998H32.412C32.7472 35.0044 33.0801 34.9433 33.3916 34.8201C33.7031 34.6968 33.9871 34.5137 34.2275 34.2814C34.4678 34.049 34.6597 33.7718 34.7923 33.4657C34.9248 33.1596 34.9954 32.8305 35 32.4973V2.50271C34.9954 2.16948 34.9248 1.8404 34.7923 1.53429C34.6597 1.22817 34.4678 0.951012 34.2275 0.718631C33.9871 0.486249 33.7031 0.303201 33.3916 0.179939C33.0801 0.056677 32.7472 -0.00438332 32.412 0.0002447ZM10.6162 29.2948H5.33451V13.5451H10.6162V29.2948ZM7.97535 11.3401C7.24694 11.3401 6.54836 11.0525 6.0333 10.5405C5.51823 10.0285 5.22887 9.33415 5.22887 8.61012C5.22887 7.88609 5.51823 7.19172 6.0333 6.67975C6.54836 6.16778 7.24694 5.88016 7.97535 5.88016C8.36214 5.83656 8.75383 5.87466 9.12478 5.99196C9.49573 6.10926 9.83757 6.30311 10.1279 6.56084C10.4183 6.81856 10.6506 7.13433 10.8096 7.48748C10.9687 7.84063 11.0509 8.2232 11.0509 8.61012C11.0509 8.99705 10.9687 9.37961 10.8096 9.73276C10.6506 10.0859 10.4183 10.4017 10.1279 10.6594C9.83757 10.9171 9.49573 11.111 9.12478 11.2283C8.75383 11.3456 8.36214 11.3837 7.97535 11.3401ZM29.6655 29.2948H24.3838V20.8425C24.3838 18.725 23.6268 17.3425 21.7077 17.3425C21.1138 17.3468 20.5355 17.532 20.0508 17.873C19.566 18.2141 19.198 18.6947 18.9965 19.25C18.8587 19.6613 18.799 20.0945 18.8204 20.5275V29.2773H13.5387C13.5387 29.2773 13.5387 14.9625 13.5387 13.5276H18.8204V15.75C19.3002 14.9225 19.9981 14.2407 20.8388 13.7782C21.6795 13.3156 22.6313 13.0898 23.5915 13.1251C27.1127 13.1251 29.6655 15.3825 29.6655 20.23V29.2948Z" fill="white"/>
</svg>
