<svg width="150" height="47" viewBox="0 0 150 47" fill="none" xmlns="http://www.w3.org/2000/svg">
  <path
    d="M6.20952 26.1515C6.68205 26.5445 7.04042 26.5717 7.71893 26.5395L29.6304 18.5678L31.2811 14.6645C31.6832 12.4688 31.5603 11.623 30.9078 10.593C29.8048 9.50136 28.8312 9.28262 26.494 9.55122L13.5855 14.2846L0.677077 19.018C0.387594 19.3194 0.352555 19.5967 0.474741 20.0261C0.596927 20.4555 6.20952 26.1515 6.20952 26.1515Z"
    fill="#ffffff" />
  <path
    d="M31.2811 14.6645L29.6304 18.5678L23.6634 31.8172L19.5461 27.4195C19.0117 27.0323 18.6875 26.9313 18.0541 27.0152C14.7726 28.1304 13.1171 28.7358 10.5214 29.7776C10.3938 30.1169 10.3989 30.3096 10.4924 30.6562L22.0437 42.9942C24.9845 45.0643 26.8842 45.0223 29.513 42.1578L38.1273 22.9914C38.6777 20.454 38.4508 19.301 37.4269 17.5561L30.9078 10.593C31.5603 11.623 31.6832 12.4688 31.2811 14.6645Z"
    fill="#ffffff" />
  <path fill-rule="evenodd" clip-rule="evenodd"
    d="M62.6011 36.1702V10.6431L55.8076 9.95691V18.6032C54.7326 17.6425 53.4058 17.1621 51.8275 17.1621C50.3179 17.1621 48.9797 17.5853 47.8132 18.4316C46.6696 19.2551 45.7775 20.4102 45.137 21.897C44.4964 23.3609 44.1763 25.0307 44.1763 26.9063C44.1763 30.0172 44.7596 32.4532 45.9261 34.2145C47.0927 35.9757 48.8312 36.8564 51.1413 36.8564C53.2916 36.8564 55.0184 35.9986 56.3222 34.2831L56.5624 36.1702H62.6011ZM55.8076 30.3717C55.19 31.4468 54.4008 31.9843 53.4401 31.9843C52.7083 31.9843 52.1363 31.6526 51.7246 30.9893C51.3359 30.326 51.1413 28.9879 51.1413 26.975C51.1413 25.2365 51.3815 23.9785 51.8618 23.2008C52.3422 22.4002 52.9828 21.9999 53.7832 21.9999C54.172 21.9999 54.5267 22.0914 54.8469 22.2744C55.167 22.4345 55.4874 22.6861 55.8076 23.0292V30.3717ZM78.4385 17.5739C77.7979 17.368 77.1803 17.2651 76.5857 17.2651C75.579 17.2651 74.6526 17.6311 73.8065 18.363C72.9601 19.095 72.3425 20.0671 71.9538 21.2794L71.4048 17.8483H65.4691V36.1702H72.2626V27.8327C72.5597 26.506 72.9488 25.511 73.4291 24.8477C73.9321 24.1844 74.687 23.8527 75.6936 23.8527C76.1966 23.8527 76.7573 23.9442 77.3749 24.1272L78.4385 17.5739ZM95.624 28.9307C95.7156 28.0615 95.7612 27.341 95.7612 26.7691C95.7612 24.7562 95.3838 23.0292 94.629 21.5882C93.8971 20.1472 92.8561 19.0492 91.5067 18.2944C90.1573 17.5396 88.579 17.1621 86.7718 17.1621C84.8274 17.1621 83.1692 17.6082 81.7968 18.5002C80.4244 19.3694 79.3837 20.5589 78.6745 22.0685C77.9883 23.5553 77.6452 25.2137 77.6452 27.0436C77.6452 29.9943 78.48 32.3731 80.1499 34.1802C81.8198 35.9643 84.2785 36.8564 87.5267 36.8564C90.3401 36.8564 92.8561 35.953 95.075 34.1459L92.3301 30.4403C91.5297 30.9893 90.7975 31.401 90.1343 31.6755C89.471 31.9271 88.8191 32.0529 88.1786 32.0529C87.0806 32.0529 86.2342 31.8471 85.6396 31.4353C85.0676 31.0007 84.6902 30.1658 84.5073 28.9307H95.624ZM88.556 22.343C88.8761 22.9377 89.0477 23.7727 89.0706 24.8477V25.0879H84.473C84.5873 23.7155 84.8275 22.7662 85.1935 22.2401C85.5823 21.714 86.1542 21.451 86.9091 21.451C87.7095 21.451 88.2585 21.7483 88.556 22.343ZM108.821 17.814C107.586 17.3794 106.294 17.1621 104.944 17.1621C103.274 17.1621 101.833 17.4252 100.621 17.9513C99.4314 18.4774 98.5167 19.1865 97.8761 20.0785C97.2585 20.9706 96.9497 21.977 96.9497 23.0979C96.9497 26.0028 98.7225 27.9814 102.268 29.0336C103.411 29.3767 104.212 29.6398 104.67 29.8227C105.127 29.9829 105.424 30.1544 105.562 30.3374C105.722 30.4975 105.802 30.7377 105.802 31.0579C105.802 31.4239 105.63 31.7098 105.287 31.9157C104.967 32.0987 104.498 32.1902 103.88 32.1902C103.08 32.1902 102.268 32.03 101.444 31.7098C100.644 31.3667 99.9004 30.9207 99.2142 30.3717L95.989 33.94C96.9497 34.8551 98.1276 35.5756 99.523 36.1016C100.941 36.6049 102.451 36.8564 104.052 36.8564C105.722 36.8564 107.209 36.5933 108.512 36.0673C109.839 35.5413 110.868 34.7978 111.6 33.8371C112.355 32.8764 112.733 31.7784 112.733 30.5433C112.733 28.9421 112.287 27.7069 111.394 26.8377C110.525 25.9456 109.176 25.2137 107.346 24.6418C106.202 24.2987 105.367 24.0243 104.841 23.8184C104.338 23.5896 104.018 23.4067 103.88 23.2694C103.743 23.1093 103.675 22.9149 103.675 22.6861C103.675 22.1372 104.189 21.8627 105.219 21.8627C105.95 21.8627 106.694 21.9885 107.449 22.2401C108.204 22.4688 108.913 22.7891 109.576 23.2008L111.978 19.5296C111.131 18.7976 110.079 18.2258 108.821 17.814ZM130.279 31.6755C130.119 31.3553 130.039 30.8749 130.039 30.2345V23.9213C130.039 21.6339 129.387 19.9413 128.083 18.8434C126.779 17.7225 124.686 17.1621 121.804 17.1621C120.729 17.1621 119.528 17.288 118.202 17.5396C116.898 17.7911 115.685 18.1457 114.565 18.6032L116.04 22.9263C116.932 22.6289 117.801 22.4002 118.648 22.2401C119.517 22.0571 120.226 21.9656 120.775 21.9656C121.804 21.9656 122.502 22.1257 122.868 22.446C123.234 22.7662 123.417 23.3838 123.417 24.2987V24.7448H122.113C119.231 24.7448 117.035 25.2823 115.525 26.3574C114.016 27.4324 113.261 28.9879 113.261 31.0236C113.261 32.7391 113.81 34.1459 114.908 35.2438C116.028 36.3188 117.492 36.8564 119.3 36.8564C121.793 36.8564 123.634 35.9643 124.824 34.1802C125.327 35.0266 125.967 35.6442 126.745 36.033C127.523 36.3991 128.529 36.6276 129.764 36.7192L131.137 32.3617C130.725 32.2016 130.439 31.9729 130.279 31.6755ZM122.525 31.7784C122.182 31.9843 121.804 32.0872 121.393 32.0872C120.935 32.0872 120.569 31.9386 120.295 31.6412C120.02 31.321 119.883 30.8978 119.883 30.3717C119.883 29.6626 120.111 29.1365 120.569 28.7934C121.026 28.4503 121.736 28.2788 122.696 28.2788H123.417V30.9893C123.188 31.3095 122.891 31.5726 122.525 31.7784Z"
    fill="#ffffff" />
  <path
    d="M145.059 17.1621C146.592 17.1621 147.793 17.6425 148.662 18.6032C149.554 19.5639 150 20.9134 150 22.6518V44.0616H143.207V23.887C143.207 23.2008 143.115 22.7319 142.932 22.4803C142.772 22.2287 142.52 22.1029 142.177 22.1029C141.422 22.1029 140.656 22.709 139.878 23.9213V36.1702H133.085V17.8483H139.021L139.501 19.7354C140.347 18.8434 141.205 18.1915 142.074 17.7797C142.966 17.368 143.961 17.1621 145.059 17.1621Z"
    fill="#ffffff" />
</svg>