<svg width="205" height="48" viewBox="0 0 205 48" fill="none" xmlns="http://www.w3.org/2000/svg">
<path d="M0.401543 12.452C-0.188109 13.0377 -0.0766961 13.4075 0.401543 14.0978L8.63045 22.3267C9.49302 23.1117 10.0453 23.2382 11.0991 23.1496L42.369 11.6291L34.1401 30.5556L28.3798 23.9725C27.1885 23.6433 26.5063 23.5067 25.0883 23.9725L15.2136 27.264C13.9478 27.7699 13.9569 28.1575 14.3907 28.9098L31.6714 46.1905C35.8499 48.7033 38.1908 48.7518 42.369 45.3676L54.7123 18.2122C55.003 15.2026 54.7586 13.387 53.8894 9.98331L44.084 0.465838C42.365 -0.103642 38.0275 -0.204899 35.8551 0.465951L0.401543 12.452Z" fill="white"/>
<path fill-rule="evenodd" clip-rule="evenodd" d="M86.7266 37.3562V2.92555L77.5465 2V13.662C76.0939 12.3662 74.301 11.7183 72.1683 11.7183C70.1283 11.7183 68.3201 12.2891 66.7437 13.4306C65.1984 14.5413 63.9929 16.0993 63.1273 18.1046C62.2617 20.0792 61.8291 22.3313 61.8291 24.8612C61.8291 29.0571 62.6173 32.3428 64.1937 34.7183C65.77 37.0938 68.1193 38.2817 71.241 38.2817C74.1466 38.2817 76.4801 37.1248 78.242 34.8109L78.5665 37.3562H86.7266ZM77.5465 29.5352C76.7119 30.9853 75.6456 31.7103 74.3474 31.7103C73.3584 31.7103 72.5856 31.2629 72.0292 30.3682C71.5039 29.4736 71.241 27.6687 71.241 24.9537C71.241 22.609 71.5655 20.9122 72.2146 19.8632C72.8637 18.7834 73.7294 18.2435 74.811 18.2435C75.3363 18.2435 75.8157 18.3669 76.2483 18.6137C76.6809 18.8297 77.1139 19.169 77.5465 19.6318V29.5352ZM108.128 12.2737C107.262 11.996 106.428 11.8572 105.624 11.8572C104.264 11.8572 103.012 12.3508 101.869 13.338C100.725 14.3253 99.8902 15.6365 99.3649 17.2716L98.6231 12.6439H90.6021V37.3562H99.7822V26.1107C100.184 24.3213 100.709 22.9792 101.359 22.0845C102.038 21.1898 103.058 20.7425 104.419 20.7425C105.098 20.7425 105.856 20.8659 106.69 21.1127L108.128 12.2737ZM131.351 27.5916C131.474 26.4192 131.536 25.4474 131.536 24.6761C131.536 21.9611 131.026 19.6318 130.006 17.6881C129.017 15.7445 127.61 14.2636 125.787 13.2455C123.963 12.2274 121.831 11.7183 119.389 11.7183C116.761 11.7183 114.52 12.3199 112.666 13.5232C110.811 14.6955 109.405 16.2998 108.447 18.336C107.519 20.3414 107.056 22.5782 107.056 25.0463C107.056 29.0262 108.184 32.2348 110.44 34.6721C112.697 37.0785 116.019 38.2817 120.409 38.2817C124.21 38.2817 127.61 37.0632 130.609 34.6258L126.9 29.6278C125.818 30.3682 124.828 30.9236 123.932 31.2938C123.036 31.6332 122.155 31.8028 121.29 31.8028C119.806 31.8028 118.662 31.5252 117.859 30.9698C117.086 30.3836 116.576 29.2576 116.329 27.5916H131.351ZM121.8 18.7063C122.232 19.5084 122.464 20.6345 122.495 22.0845V22.4085H116.282C116.437 20.5574 116.761 19.277 117.256 18.5674C117.781 17.8578 118.554 17.503 119.574 17.503C120.656 17.503 121.398 17.9041 121.8 18.7063ZM149.184 12.5976C147.515 12.0114 145.768 11.7183 143.945 11.7183C141.688 11.7183 139.741 12.0731 138.103 12.7827C136.496 13.4923 135.259 14.4487 134.394 15.6519C133.559 16.8551 133.142 18.2126 133.142 19.7244C133.142 23.6426 135.538 26.3112 140.328 27.7304C141.874 28.1932 142.956 28.548 143.574 28.7948C144.192 29.0108 144.594 29.2422 144.779 29.489C144.996 29.7049 145.104 30.0289 145.104 30.4608C145.104 30.9544 144.872 31.3401 144.408 31.6177C143.976 31.8645 143.342 31.988 142.508 31.988C141.426 31.988 140.328 31.772 139.216 31.3401C138.134 30.8773 137.129 30.2757 136.202 29.5352L131.844 34.3481C133.142 35.5823 134.734 36.5542 136.619 37.2636C138.536 37.9425 140.576 38.2817 142.739 38.2817C144.996 38.2817 147.005 37.9268 148.767 37.2173C150.56 36.5079 151.95 35.5051 152.939 34.2093C153.959 32.9135 154.469 31.4326 154.469 29.7666C154.469 27.607 153.867 25.941 152.661 24.7686C151.487 23.5654 149.663 22.5782 147.19 21.8069C145.645 21.3441 144.516 20.9739 143.806 20.6962C143.126 20.3877 142.693 20.1409 142.508 19.9558C142.322 19.7398 142.229 19.4776 142.229 19.169C142.229 18.4286 142.925 18.0584 144.316 18.0584C145.305 18.0584 146.309 18.2281 147.329 18.5674C148.349 18.876 149.308 19.3079 150.204 19.8632L153.449 14.9115C152.306 13.9242 150.884 13.1529 149.184 12.5976ZM178.18 31.2938C177.963 30.8619 177.855 30.214 177.855 29.3501V20.835C177.855 17.7498 176.975 15.4668 175.213 13.9859C173.451 12.4742 170.623 11.7183 166.728 11.7183C165.275 11.7183 163.652 11.888 161.86 12.2274C160.098 12.5667 158.46 13.045 156.945 13.662L158.939 19.493C160.144 19.0919 161.319 18.7834 162.463 18.5674C163.637 18.3206 164.595 18.1972 165.337 18.1972C166.728 18.1972 167.671 18.4132 168.165 18.8451C168.66 19.277 168.907 20.11 168.907 21.3441V21.9457H167.145C163.251 21.9457 160.283 22.6707 158.243 24.1207C156.203 25.5708 155.183 27.6687 155.183 30.4145C155.183 32.7284 155.925 34.6258 157.409 36.1067C158.923 37.5566 160.902 38.2817 163.344 38.2817C166.712 38.2817 169.201 37.0785 170.808 34.6721C171.488 35.8137 172.353 36.6467 173.405 37.1711C174.455 37.6648 175.815 37.9731 177.485 38.0966L179.339 32.2193C178.783 32.0034 178.396 31.6949 178.18 31.2938ZM167.702 31.4326C167.238 31.7103 166.728 31.8491 166.172 31.8491C165.553 31.8491 165.059 31.6486 164.688 31.2475C164.317 30.8156 164.132 30.2448 164.132 29.5352C164.132 28.5788 164.44 27.8692 165.059 27.4065C165.677 26.9437 166.635 26.7123 167.934 26.7123H168.907V30.3682C168.598 30.8001 168.196 31.155 167.702 31.4326Z" fill="white"/>
<path d="M198.153 11.7183C200.224 11.7183 201.846 12.3662 203.021 13.662C204.226 14.9578 204.829 16.778 204.829 19.1228V48H195.649V20.7888C195.649 19.8632 195.525 19.2307 195.278 18.8914C195.062 18.552 194.722 18.3823 194.258 18.3823C193.238 18.3823 192.203 19.1999 191.152 20.835V37.3562H181.972V12.6439H189.993L190.642 15.1891C191.786 13.9859 192.945 13.1067 194.119 12.5513C195.324 11.996 196.669 11.7183 198.153 11.7183Z" fill="white"/>
</svg>
