<svg width="150" height="39" viewBox="0 0 150 39" fill="none" xmlns="http://www.w3.org/2000/svg">
<path fill-rule="evenodd" clip-rule="evenodd" d="M0 19.2672C3.88325 18.8314 5.84282 19.3279 8.90289 21.7049C14.1199 24.7055 16.7691 25.3604 21.1267 25.1671C18.0751 21.6721 17.801 12.6613 21.1267 8.42122C18.592 7.06663 16.9022 7.03756 13.3543 8.42122C12.3396 8.93905 11.7967 9.32558 10.846 10.0817C13.4336 10.9624 14.3431 11.5452 15.2974 12.696C16.4178 14.5271 16.3568 15.4282 15.2974 16.8648C14.167 17.5326 13.2022 17.4507 11.1639 16.8648C9.33835 16.131 8.29444 15.8753 6.39454 15.6636C4.53864 15.8484 3.5268 16.193 1.80178 17.4654L0 19.2672ZM6.8606 23.5937C7.577 23.3567 8.23597 23.1386 8.82549 23.0782C10.3633 24.1957 10.2678 26.0233 8.82549 26.8937C6.77255 27.8338 3.42019 26.7523 2.25431 25.9045C1.08843 25.0567 -0.111748 23.2175 0.0639148 23.2195C2.58923 25.007 4.93285 24.2315 6.8606 23.5937Z" fill="#FF4136"/>
<path fill-rule="evenodd" clip-rule="evenodd" d="M69.7945 8.41751C69.0766 8.18678 68.3844 8.07142 67.7179 8.07142C66.5897 8.07142 65.5514 8.48162 64.6031 9.30198C63.6544 10.1223 62.9622 11.2119 62.5265 12.5707L61.9112 8.72515H55.2585V29.2601H62.8726V19.9155C63.2056 18.4286 63.6417 17.3134 64.1801 16.57C64.7438 15.8265 65.5898 15.4548 66.7181 15.4548C67.2819 15.4548 67.9102 15.5573 68.6024 15.7624L69.7945 8.41751ZM89.0558 21.1461C89.1585 20.1719 89.2097 19.3644 89.2097 18.7234C89.2097 16.4674 88.7867 14.5319 87.9406 12.9167C87.1204 11.3016 85.9537 10.0711 84.4412 9.22507C82.9288 8.37906 81.1599 7.95605 79.1345 7.95605C76.9552 7.95605 75.0967 8.45597 73.5585 9.4558C72.0203 10.43 70.8539 11.7631 70.0591 13.4551C69.29 15.1215 68.9054 16.9802 68.9054 19.0311C68.9054 22.3382 69.841 25.0044 71.7127 27.0297C73.5843 29.0294 76.3399 30.0292 79.9805 30.0292C83.1338 30.0292 85.9537 29.0167 88.4406 26.9913L85.3642 22.8381C84.467 23.4534 83.6464 23.9149 82.903 24.2225C82.1597 24.5045 81.4291 24.6455 80.7111 24.6455C79.4806 24.6455 78.5319 24.4148 77.8654 23.9533C77.2244 23.4662 76.8014 22.5305 76.5964 21.1461H89.0558ZM81.1341 13.7628C81.4929 14.4293 81.6852 15.3651 81.7109 16.57V16.8392H76.558C76.686 15.301 76.9552 14.237 77.3655 13.6474C77.8012 13.0578 78.4423 12.7629 79.2883 12.7629C80.1854 12.7629 80.8007 13.0962 81.1341 13.7628ZM103.847 8.6867C102.463 8.19959 101.014 7.95605 99.5017 7.95605C97.6301 7.95605 96.015 8.25089 94.6564 8.84052C93.3232 9.43015 92.298 10.2249 91.58 11.2247C90.8878 12.2246 90.5417 13.3526 90.5417 14.6088C90.5417 17.8646 92.5287 20.0822 96.5023 21.2615C97.784 21.646 98.6815 21.9409 99.1941 22.1459C99.7067 22.3254 100.04 22.5177 100.194 22.7228C100.374 22.9022 100.463 23.1714 100.463 23.5303C100.463 23.9405 100.271 24.261 99.8863 24.4917C99.5275 24.6968 99.0018 24.7993 98.3096 24.7993C97.4125 24.7993 96.5022 24.6199 95.5793 24.261C94.6822 23.8764 93.8489 23.3765 93.0798 22.7612L89.465 26.7605C90.5417 27.7861 91.8619 28.5937 93.4258 29.1832C95.0152 29.7473 96.7072 30.0292 98.5019 30.0292C100.374 30.0292 102.04 29.7343 103.501 29.1447C104.988 28.5552 106.142 27.7219 106.962 26.6452C107.808 25.5684 108.231 24.3379 108.231 22.9535C108.231 21.1589 107.731 19.7745 106.731 18.8004C105.757 17.8005 104.244 16.9802 102.194 16.3392C100.912 15.9547 99.9759 15.647 99.3864 15.4163C98.8222 15.1599 98.4635 14.9549 98.3096 14.801C98.1558 14.6216 98.0789 14.4037 98.0789 14.1473C98.0789 13.532 98.6557 13.2244 99.8094 13.2244C100.63 13.2244 101.463 13.3654 102.309 13.6474C103.155 13.9038 103.95 14.2627 104.693 14.7241L107.385 10.6094C106.436 9.78909 105.257 9.14816 103.847 8.6867ZM127.897 24.2225C127.717 23.8636 127.628 23.3252 127.628 22.6074V15.5317C127.628 12.968 126.897 11.0709 125.436 9.84035C123.974 8.58414 121.629 7.95605 118.399 7.95605C117.193 7.95605 115.847 8.09707 114.361 8.37906C112.899 8.66105 111.54 9.05844 110.285 9.57116L111.938 14.4165C112.938 14.0832 113.912 13.8269 114.861 13.6474C115.835 13.4423 116.63 13.3398 117.245 13.3398C118.399 13.3398 119.18 13.5192 119.591 13.8781C120.001 14.237 120.206 14.9292 120.206 15.9547V16.4546H118.745C115.514 16.4546 113.053 17.0571 111.361 18.262C109.669 19.4669 108.823 21.2102 108.823 23.4919C108.823 25.4146 109.439 26.9913 110.669 28.2218C111.925 29.4266 113.566 30.0292 115.591 30.0292C118.385 30.0292 120.449 29.0294 121.783 27.0297C122.346 27.9784 123.064 28.6706 123.936 29.1063C124.807 29.5166 125.936 29.7727 127.32 29.8754L128.858 24.9916C128.397 24.8121 128.076 24.5558 127.897 24.2225ZM119.206 24.3379C118.822 24.5686 118.399 24.684 117.937 24.684C117.424 24.684 117.014 24.5173 116.706 24.1841C116.399 23.8252 116.245 23.3508 116.245 22.7612C116.245 21.9665 116.501 21.3768 117.014 20.9923C117.527 20.6077 118.322 20.4155 119.398 20.4155H120.206V23.4534C119.949 23.8123 119.616 24.1071 119.206 24.3379Z" fill="white"/>
<path d="M144.463 7.95605C146.18 7.95605 147.526 8.49443 148.5 9.57116C149.5 10.6479 150 12.1605 150 14.1089V38.1047H142.386V15.4932C142.386 14.7241 142.283 14.1986 142.078 13.9166C141.899 13.6346 141.617 13.4936 141.232 13.4936C140.386 13.4936 139.528 14.173 138.656 15.5317V29.2601H131.042V8.72515H137.694L138.233 10.8402C139.181 9.84035 140.143 9.1097 141.117 8.64824C142.117 8.18679 143.232 7.95605 144.463 7.95605Z" fill="white"/>
<path d="M26.0044 7.90584C26.0716 8.44223 26.2853 8.67508 26.7403 9.06228L45.6008 17.1153L49.0071 15.6014C50.5851 14.4333 51.0146 13.8165 51.2148 12.7629C51.1628 11.3989 50.6692 10.6733 49.0071 9.44075L37.8737 4.72038L26.7403 0C26.3733 0.0195382 26.1841 0.17649 26.0044 0.525654C25.8247 0.874819 26.0044 7.90584 26.0044 7.90584Z" fill="white"/>
<path d="M49.0071 15.6014L45.6008 17.1153L33.8051 22.0354V16.7368C33.6947 16.167 33.5473 15.9072 33.0902 15.5804C30.3129 14.3238 28.8861 13.7174 26.5932 12.826C26.3073 12.9671 26.1947 13.0939 26.0465 13.3727V28.2382C26.6904 31.335 27.9353 32.45 31.3451 32.1911L48.3973 25.0632C50.2759 23.7649 50.8234 22.8882 51.2148 21.1523V12.7629C51.0146 13.8165 50.5851 14.4333 49.0071 15.6014Z" fill="white"/>
</svg>
