<svg width="35" height="30" viewBox="0 0 35 30" fill="none" xmlns="http://www.w3.org/2000/svg">
<path d="M0.250964 7.78249C-0.117568 8.14856 -0.047935 8.37971 0.250964 8.8111L5.39403 13.9542C5.93314 14.4448 6.27831 14.5239 6.93695 14.4685L26.4806 7.26818L21.3375 19.0972L17.7374 14.9828C16.9928 14.7771 16.5664 14.6917 15.6802 14.9828L9.50848 17.04C8.71735 17.3562 8.72307 17.5985 8.99418 18.0686L19.7946 28.8691C22.4062 30.4396 23.8692 30.4699 26.4806 28.3548L34.1952 11.3826C34.3769 9.50161 34.2241 8.36689 33.6809 6.23957L27.5525 0.291149C26.4782 -0.0647763 23.7672 -0.128062 22.4095 0.291219L0.250964 7.78249Z" fill="white"/>
</svg>
