<svg width="200" height="62" viewBox="0 0 200 62" fill="none" xmlns="http://www.w3.org/2000/svg">
<path d="M8.27936 34.8688C8.9094 35.3929 9.38723 35.429 10.2919 35.3861L39.5072 24.7572L41.7082 19.5528C42.2443 16.6252 42.0804 15.4976 41.2104 14.1242C39.7397 12.6687 38.4416 12.377 35.3253 12.7351L18.114 19.0463L0.90277 25.3574C0.516792 25.7594 0.470074 26.129 0.632988 26.7016C0.795903 27.2742 8.27936 34.8688 8.27936 34.8688Z" fill="white"/>
<path d="M41.7082 19.5528L39.5072 24.7572L31.5512 42.4231L26.0615 36.5595C25.3489 36.0433 24.9166 35.9085 24.0722 36.0204C19.6968 37.5073 17.4895 38.3145 14.0285 39.7037C13.8584 40.156 13.8652 40.413 13.9899 40.875L29.3915 57.3258C33.3127 60.0858 35.8455 60.0299 39.3507 56.2106L50.8364 30.6553C51.5702 27.2722 51.2678 25.7348 49.9025 23.4083L41.2104 14.1242C42.0804 15.4976 42.2443 16.6252 41.7082 19.5528Z" fill="white"/>
<path fill-rule="evenodd" clip-rule="evenodd" d="M83.468 48.2269V14.1908L74.4101 13.2759V24.8042C72.9768 23.5233 71.2077 22.8828 69.1033 22.8828C67.0905 22.8828 65.3063 23.447 63.7509 24.5755C62.2261 25.6734 61.0367 27.2136 60.1826 29.196C59.3285 31.1479 58.9017 33.3742 58.9017 35.8751C58.9017 40.0229 59.6794 43.271 61.2348 45.6193C62.7902 47.9675 65.1082 49.1419 68.1884 49.1419C71.0554 49.1419 73.3579 47.9982 75.0963 45.7108L75.4165 48.2269H83.468ZM74.4101 40.4956C73.5866 41.929 72.5344 42.6457 71.2535 42.6457C70.2777 42.6457 69.5151 42.2035 68.9661 41.3191C68.4478 40.4346 68.1884 38.6505 68.1884 35.9666C68.1884 33.6487 68.5086 31.9713 69.1491 30.9344C69.7896 29.867 70.6437 29.3332 71.711 29.3332C72.2293 29.3332 72.7023 29.4552 73.1291 29.6992C73.5559 29.9127 73.9832 30.2482 74.4101 30.7057V40.4956ZM104.585 23.4318C103.73 23.1573 102.907 23.0201 102.114 23.0201C100.772 23.0201 99.5368 23.5081 98.4087 24.484C97.2801 25.4599 96.4566 26.7561 95.9383 28.3725L95.2064 23.7978H87.2921V48.2269H96.3501V37.1103C96.7462 35.3414 97.265 34.0147 97.9055 33.1303C98.5761 32.2458 99.5826 31.8036 100.925 31.8036C101.595 31.8036 102.343 31.9256 103.166 32.1696L104.585 23.4318ZM127.499 38.5742C127.621 37.4153 127.682 36.4546 127.682 35.6921C127.682 33.0083 127.178 30.7057 126.172 28.7843C125.196 26.8629 123.808 25.399 122.009 24.3925C120.21 23.3861 118.105 22.8828 115.696 22.8828C113.103 22.8828 110.892 23.4776 109.062 24.667C107.232 25.8259 105.845 27.4118 104.899 29.4247C103.984 31.4071 103.527 33.6183 103.527 36.0581C103.527 39.9924 104.64 43.1642 106.866 45.5736C109.093 47.9524 112.371 49.1419 116.702 49.1419C120.453 49.1419 123.808 47.9373 126.767 45.5278L123.107 40.5871C122.04 41.3191 121.063 41.868 120.179 42.234C119.295 42.5695 118.425 42.7372 117.571 42.7372C116.107 42.7372 114.979 42.4627 114.186 41.9138C113.423 41.3343 112.92 40.2211 112.676 38.5742H127.499ZM118.075 29.7907C118.501 30.5836 118.73 31.6969 118.761 33.1303V33.4505H112.631C112.783 31.6206 113.103 30.3549 113.591 29.6535C114.11 28.952 114.872 28.6013 115.879 28.6013C116.946 28.6013 117.678 28.9978 118.075 29.7907ZM145.095 23.752C143.448 23.1726 141.725 22.8828 139.925 22.8828C137.699 22.8828 135.777 23.2336 134.161 23.935C132.575 24.6365 131.356 25.5819 130.501 26.7714C129.678 27.9608 129.266 29.3027 129.266 30.7971C129.266 34.6704 131.63 37.3085 136.357 38.7115C137.882 39.1689 138.95 39.5197 139.559 39.7636C140.169 39.9771 140.566 40.2059 140.749 40.4499C140.962 40.6634 141.069 40.9836 141.069 41.4106C141.069 41.8985 140.84 42.2798 140.383 42.5542C139.956 42.7982 139.331 42.9202 138.507 42.9202C137.44 42.9202 136.357 42.7067 135.259 42.2798C134.192 41.8223 133.201 41.2276 132.286 40.4956L127.985 45.2533C129.266 46.4734 130.837 47.4341 132.697 48.1354C134.588 48.8065 136.601 49.1419 138.736 49.1419C140.962 49.1419 142.945 48.791 144.683 48.0897C146.452 47.3884 147.825 46.397 148.8 45.1161C149.807 43.8352 150.31 42.3712 150.31 40.7243C150.31 38.5894 149.715 36.9425 148.526 35.7836C147.367 34.5942 145.567 33.6183 143.128 32.8558C141.603 32.3983 140.489 32.0323 139.788 31.7578C139.117 31.4528 138.69 31.2089 138.507 31.0259C138.324 30.8124 138.233 30.5532 138.233 30.2482C138.233 29.5162 138.919 29.1502 140.291 29.1502C141.267 29.1502 142.259 29.318 143.265 29.6535C144.271 29.9585 145.217 30.3854 146.101 30.9344L149.304 26.0394C148.175 25.0635 146.772 24.301 145.095 23.752ZM173.705 42.234C173.492 41.807 173.385 41.1666 173.385 40.3126V31.8951C173.385 28.8452 172.516 26.5884 170.777 25.1245C169.039 23.63 166.248 22.8828 162.406 22.8828C160.972 22.8828 159.371 23.0506 157.602 23.3861C155.864 23.7215 154.247 24.1943 152.753 24.8042L154.72 30.5684C155.91 30.1719 157.068 29.867 158.197 29.6535C159.356 29.4095 160.301 29.2875 161.033 29.2875C162.406 29.2875 163.336 29.501 163.824 29.9279C164.312 30.3549 164.556 31.1784 164.556 32.3983V32.993H162.817C158.975 32.993 156.047 33.7098 154.034 35.1432C152.021 36.5766 151.015 38.6505 151.015 41.3648C151.015 43.6522 151.747 45.5278 153.21 46.9917C154.705 48.425 156.657 49.1419 159.066 49.1419C162.39 49.1419 164.845 47.9524 166.431 45.5736C167.102 46.7022 167.956 47.5256 168.993 48.0439C170.03 48.5321 171.372 48.8367 173.019 48.9589L174.849 43.149C174.3 42.9355 173.918 42.6305 173.705 42.234ZM163.366 42.3713C162.909 42.6457 162.406 42.783 161.857 42.783C161.246 42.783 160.759 42.5848 160.393 42.1883C160.027 41.7613 159.844 41.1971 159.844 40.4956C159.844 39.5501 160.149 38.8487 160.759 38.3912C161.369 37.9337 162.314 37.705 163.595 37.705H164.556V41.3191C164.251 41.746 163.854 42.0968 163.366 42.3713Z" fill="white"/>
<path d="M193.412 22.8828C195.456 22.8828 197.057 23.5233 198.216 24.8042C199.405 26.0852 200 27.8845 200 30.2024V58.7488H190.942V31.8493C190.942 30.9344 190.82 30.3092 190.576 29.9737C190.362 29.6382 190.027 29.4705 189.57 29.4705C188.563 29.4705 187.542 30.2787 186.505 31.8951V48.2269H177.447V23.7978H185.361L186.001 26.3139C187.13 25.1245 188.274 24.2553 189.432 23.7063C190.622 23.1573 191.948 22.8828 193.412 22.8828Z" fill="white"/>
</svg>
