<svg width="40" height="40" viewBox="0 0 40 40" fill="none" xmlns="http://www.w3.org/2000/svg">
<path d="M20 40C14.4444 40 9.72222 38.0556 5.83333 34.1667C1.94444 30.2778 0 25.5556 0 20C0 14.4444 1.94444 9.72222 5.83333 5.83333C9.72222 1.94444 14.4444 0 20 0C20.2963 0 20.6111 0.00925936 20.9444 0.0277779C21.2778 0.0462964 21.7037 0.074074 22.2222 0.111111C20.8889 1.2963 19.8519 2.75926 19.1111 4.5C18.3704 6.24074 18 8.07407 18 10C18 13.3333 19.1667 16.1667 21.5 18.5C23.8333 20.8333 26.6667 22 30 22C31.9259 22 33.7593 21.6574 35.5 20.9722C37.2407 20.287 38.7037 19.3333 39.8889 18.1111C39.9259 18.5556 39.9537 18.9167 39.9722 19.1944C39.9907 19.4722 40 19.7407 40 20C40 25.5556 38.0556 30.2778 34.1667 34.1667C30.2778 38.0556 25.5556 40 20 40Z" fill="white"/>
</svg>
