<svg width="37" height="41" viewBox="0 0 37 41" fill="none" xmlns="http://www.w3.org/2000/svg">
<path d="M16.7501 0.433388C17.7683 -0.143189 19.0666 -0.145735 20.0593 0.433388L35.2616 9.00314C36.2124 9.53771 36.8488 10.598 36.8399 11.6938V28.8766C36.8463 30.0183 36.1475 31.1015 35.1445 31.6258L20.0237 40.1561C19.5065 40.4419 18.9222 40.5841 18.3316 40.5677C17.7409 40.5514 17.1654 40.3772 16.6648 40.0632L12.1273 37.4413C11.818 37.2567 11.4705 37.1103 11.2516 36.8112C11.445 36.5516 11.7887 36.5185 12.0687 36.4039C12.7 36.2028 13.2779 35.8948 13.8583 35.569C14.0046 35.4671 14.1841 35.5053 14.3241 35.597L18.1934 37.8346C18.4696 37.9937 18.7496 37.7836 18.9864 37.65L33.8336 29.2712C34.0168 29.1821 34.1187 28.9886 34.1034 28.7875V11.7702C34.1238 11.5411 33.9927 11.3324 33.7852 11.2394L18.7025 2.74606C18.6156 2.68594 18.5125 2.65363 18.4068 2.65341C18.3011 2.65318 18.1979 2.68505 18.1107 2.74479L3.04967 11.256C2.84602 11.3489 2.70601 11.5551 2.73147 11.7842V28.8015C2.71365 29.0026 2.82056 29.1923 3.00512 29.2788L7.02971 31.5508C7.78575 31.958 8.71362 32.1871 9.54603 31.888C9.91029 31.7508 10.2239 31.5054 10.4448 31.1849C10.6657 30.8643 10.7833 30.4839 10.7819 30.0947L10.7857 13.1792C10.7679 12.9284 11.0047 12.721 11.2478 12.7464H13.1824C13.437 12.7401 13.6368 13.0099 13.6024 13.2619L13.5986 30.2843C13.5999 31.7964 12.9788 33.4409 11.58 34.1829C9.85659 35.0739 7.72593 34.8868 6.02292 34.0302L1.69541 31.6373C0.677172 31.1282 -0.00631992 30.0285 4.40662e-05 28.8881V11.7053C0.00427781 11.1468 0.157807 10.5996 0.444717 10.1205C0.731627 9.64134 1.14147 9.24765 1.63177 8.98023L16.7501 0.433388ZM21.1336 12.3442C23.3317 12.217 25.6851 12.2602 27.663 13.3434C29.1942 14.1732 30.0432 15.9144 30.0712 17.6174C30.0279 17.8465 29.7886 17.9738 29.5697 17.9573C28.9333 17.956 28.2943 17.9662 27.6554 17.9535C27.3843 17.9636 27.2277 17.7142 27.1934 17.4749C27.0101 16.6603 26.5659 15.8546 25.7997 15.4613C24.6236 14.872 23.2592 14.9013 21.9762 14.914C21.0394 14.9649 20.0326 15.0451 19.2397 15.595C18.6287 16.0124 18.4454 16.8678 18.6631 17.5322C18.8667 18.0196 19.4306 18.1762 19.8901 18.3213C22.54 19.0137 25.3465 18.9577 27.9469 19.8576C29.0224 20.2292 30.075 20.9522 30.4441 22.0786C30.9252 23.5881 30.7152 25.393 29.6422 26.6047C28.7716 27.6025 27.5039 28.132 26.2375 28.44C24.5536 28.8155 22.8073 28.8244 21.0979 28.6564C19.4904 28.4731 17.8179 28.0506 16.577 26.9559C15.5155 26.0344 14.9987 24.5987 15.0496 23.2139C15.0623 22.9797 15.2953 22.8168 15.5205 22.8359H17.4297C17.6868 22.8181 17.8752 23.0396 17.8879 23.2814C18.0063 24.0451 18.2978 24.8724 18.9749 25.3179C20.2808 26.1605 21.9189 26.1019 23.4132 26.1261C24.6516 26.0714 26.0415 26.0548 27.0534 25.2351C27.5879 24.768 27.7445 23.9878 27.6007 23.3158C27.4441 22.7481 26.837 22.4846 26.3279 22.2975C23.7123 21.4702 20.8739 21.7706 18.2838 20.8338C17.2325 20.4621 16.2155 19.7596 15.812 18.6789C15.2482 17.1516 15.5065 15.2589 16.6941 14.088C17.8396 12.9234 19.5197 12.4741 21.1107 12.3137L21.1336 12.3442Z" fill="#8CC84B"/>
</svg>
