<svg width="41" height="37" viewBox="0 0 41 37" fill="none" xmlns="http://www.w3.org/2000/svg">
<path d="M9.93166 12.3173C5.13877 13.6491 2 15.865 2 18.3757C2 22.4465 10.2466 25.7437 20.42 25.7437C21.8439 25.7437 23.2309 25.6792 24.5608 25.5558" stroke="#61DAFB" stroke-width="3" stroke-linecap="round" stroke-linejoin="round"/>
<path d="M30.9046 24.4341C35.6993 23.1042 38.8399 20.8864 38.8399 18.3758C38.8399 14.3049 30.5933 11.0078 20.4199 11.0078C18.996 11.0078 17.609 11.0722 16.2754 11.1956" stroke="#61DAFB" stroke-width="3" stroke-linecap="round" stroke-linejoin="round"/>
<path d="M9.92972 24.4304C8.68452 29.2473 9.03635 33.075 11.2099 34.3275C14.7337 36.3629 21.7148 30.8701 26.8006 22.0598C27.5135 20.8257 28.1508 19.5934 28.7089 18.3758" stroke="#61DAFB" stroke-width="3" stroke-linecap="round" stroke-linejoin="round"/>
<path d="M30.9083 12.3267C32.1554 7.508 31.8054 3.67664 29.63 2.42408C26.1062 0.388671 19.1251 5.88152 14.0393 14.6918C13.3265 15.9259 12.6891 17.1601 12.1292 18.3758" stroke="#61DAFB" stroke-width="3" stroke-linecap="round" stroke-linejoin="round"/>
<path d="M20.4199 6.26276C16.8741 2.7777 13.3835 1.16779 11.2099 2.42403C7.68616 4.4576 8.95161 13.2495 14.0392 22.0598C14.7502 23.2939 15.4999 24.4617 16.2717 25.5522" stroke="#61DAFB" stroke-width="3" stroke-linecap="round" stroke-linejoin="round"/>
<path d="M20.4199 30.485C23.9676 33.9719 27.4582 35.5837 29.6299 34.3275C33.1537 32.2939 31.8882 23.502 26.8006 14.6917C26.1099 13.4944 25.3639 12.3284 24.5681 11.1974" stroke="#61DAFB" stroke-width="3" stroke-linecap="round" stroke-linejoin="round"/>
<path d="M19.4988 19.971C19.7084 20.0938 19.9402 20.174 20.1808 20.2069C20.4215 20.2398 20.6663 20.2248 20.9012 20.1627C21.1361 20.1006 21.3563 19.9927 21.5493 19.8451C21.7422 19.6976 21.9041 19.5133 22.0256 19.3029C22.1471 19.0925 22.2257 18.8602 22.257 18.6193C22.2883 18.3784 22.2717 18.1337 22.208 17.8993C22.1444 17.6648 22.035 17.4453 21.8862 17.2533C21.7373 17.0613 21.552 16.9007 21.3408 16.7806C20.918 16.5402 20.4172 16.4768 19.9478 16.6042C19.4783 16.7317 19.0784 17.0396 18.8352 17.4609C18.592 17.8821 18.5252 18.3825 18.6496 18.8527C18.7739 19.323 19.0792 19.725 19.4988 19.971Z" stroke="#61DAFB" stroke-width="3" stroke-linecap="round" stroke-linejoin="round"/>
</svg>
