<svg width="41" height="41" viewBox="0 0 41 41" fill="none" xmlns="http://www.w3.org/2000/svg">
<path d="M2 20.42C2 22.8389 2.47645 25.2342 3.40214 27.469C4.32783 29.7038 5.68464 31.7344 7.39509 33.4449C9.10555 35.1554 11.1362 36.5122 13.371 37.4379C15.6058 38.3636 18.0011 38.84 20.42 38.84C22.8389 38.84 25.2342 38.3636 27.469 37.4379C29.7038 36.5122 31.7344 35.1554 33.4449 33.4449C35.1554 31.7344 36.5122 29.7038 37.4379 27.469C38.3636 25.2342 38.84 22.8389 38.84 20.42C38.84 18.0011 38.3636 15.6058 37.4379 13.371C36.5122 11.1362 35.1554 9.10555 33.4449 7.39509C31.7344 5.68464 29.7038 4.32783 27.469 3.40214C25.2342 2.47645 22.8389 2 20.42 2C18.0011 2 15.6058 2.47645 13.371 3.40214C11.1362 4.32783 9.10555 5.68464 7.39509 7.39509C5.68464 9.10555 4.32783 11.1362 3.40214 13.371C2.47645 15.6058 2 18.0011 2 20.42Z" stroke="#CC6699" stroke-width="3" stroke-linecap="round" stroke-linejoin="round"/>
<path d="M20.42 17.397C25.4548 15.7064 28.6067 15.7064 28.6067 12.9864C28.6067 10.1907 25.8498 10.1907 23.009 10.1907C19.0999 10.1907 16.1486 11.1935 13.7233 13.7682C11.9877 15.6143 11.6214 18.7805 13.4102 20.5366C15.4016 22.4932 19.9718 24.1981 19.3128 27.6856C18.8359 30.2132 16.3062 31.4167 13.9566 30.1457C12.3561 29.2779 13.0274 26.5722 15.2378 25.0044C17.4482 23.4367 21.0135 22.9742 23.6292 24.5132C25.6349 25.6901 25.77 28.0417 24.5174 29.0016" stroke="#CC6699" stroke-width="3" stroke-linecap="round" stroke-linejoin="round"/>
</svg>
