<svg width="41" height="29" viewBox="0 0 41 29" fill="none" xmlns="http://www.w3.org/2000/svg">
<path d="M19.7385 2C14.6423 2 11.4617 4.50103 10.1867 9.50513C12.0962 7.00205 14.3271 6.06673 16.8731 6.69096C18.3263 7.04708 19.3639 8.08269 20.5121 9.22883C22.3868 11.0954 24.6054 13.2567 29.2882 13.2567C34.3844 13.2567 37.5649 10.7556 38.84 5.75154C36.9305 8.25461 34.6996 9.18994 32.1535 8.56571C30.7004 8.20959 29.6627 7.17397 28.5146 6.02784C26.6398 4.16128 24.4724 2 19.7385 2ZM11.5518 15.3033C6.45559 15.3033 3.27507 17.8044 2 22.8085C3.90954 20.3054 6.14041 19.3701 8.68646 19.9943C10.1396 20.3504 11.1773 21.386 12.3254 22.5322C14.2002 24.3987 16.3676 26.56 21.1015 26.56C26.1977 26.56 29.3783 24.059 30.6533 19.0549C28.7438 21.5579 26.5129 22.4933 23.9669 21.869C22.5137 21.5129 21.4761 20.4773 20.3279 19.3312C18.4532 17.4646 16.2857 15.3033 11.5518 15.3033Z" stroke="#06B6D4" stroke-width="4" stroke-linecap="round" stroke-linejoin="round"/>
</svg>
