<svg width="41" height="41" viewBox="0 0 41 41" fill="none" xmlns="http://www.w3.org/2000/svg">
<path d="M26.5601 31.6767C27.215 32.3316 28.1032 32.7 29.0304 32.7H30.1417C31.5539 32.7 32.7001 31.5539 32.7001 30.1417V29.63C32.7001 28.8158 32.3766 28.0349 31.8009 27.4592C31.2251 26.8835 30.4443 26.56 29.6301 26.56C28.8158 26.56 28.035 26.2366 27.4592 25.6608C26.8835 25.0851 26.5601 24.3042 26.5601 23.49V22.9783C26.5601 21.5661 27.7062 20.42 29.1184 20.42H30.2297C31.1569 20.42 32.0451 20.7884 32.7001 21.4433" stroke="#007ACC" stroke-width="4" stroke-linecap="round" stroke-linejoin="round"/>
<path d="M14.28 20.42H22.4667" stroke="#007ACC" stroke-width="4" stroke-linecap="round" stroke-linejoin="round"/>
<path d="M18.3733 20.42V32.7" stroke="#007ACC" stroke-width="4" stroke-linecap="round" stroke-linejoin="round"/>
<path d="M38.84 34.7467V6.09333C38.84 5.00771 38.4087 3.96656 37.6411 3.19891C36.8734 2.43126 35.8323 2 34.7467 2H6.09333C5.00771 2 3.96656 2.43126 3.19891 3.19891C2.43126 3.96656 2 5.00771 2 6.09333V34.7467C2 35.8323 2.43126 36.8734 3.19891 37.6411C3.96656 38.4087 5.00771 38.84 6.09333 38.84H34.7467C35.8323 38.84 36.8734 38.4087 37.6411 37.6411C38.4087 36.8734 38.84 35.8323 38.84 34.7467Z" stroke="#007ACC" stroke-width="4" stroke-linecap="round" stroke-linejoin="round"/>
</svg>
