<?xml version="1.0" standalone="no"?>
<!DOCTYPE svg PUBLIC "-//W3C//DTD SVG 20010904//EN"
 "http://www.w3.org/TR/2001/REC-SVG-20010904/DTD/svg10.dtd">
<svg version="1.0" xmlns="http://www.w3.org/2000/svg"
 width="700.000000pt" height="700.000000pt" viewBox="0 0 700.000000 700.000000"
 preserveAspectRatio="xMidYMid meet">
<metadata>
Created by potrace 1.14, written by Peter Selinger 2001-2017
</metadata>
<g transform="translate(0.000000,700.000000) scale(0.100000,-0.100000)"
fill="#000000" stroke="none">
<path d="M3278 6995 c-1 -1 -42 -5 -89 -9 -47 -4 -95 -8 -106 -10 -11 -3 -44
-7 -74 -11 -313 -38 -709 -158 -1024 -311 -180 -87 -448 -247 -555 -331 -8 -6
-51 -40 -95 -74 -353 -275 -673 -651 -897 -1054 -49 -87 -148 -289 -148 -301
0 -2 -9 -23 -20 -47 -57 -123 -157 -435 -186 -582 -2 -11 -10 -54 -19 -95 -29
-147 -36 -200 -52 -370 -15 -164 -8 -592 12 -711 2 -13 6 -46 9 -74 9 -78 22
-152 51 -285 21 -96 91 -339 114 -395 5 -11 25 -65 46 -120 63 -166 249 -531
312 -610 4 -6 34 -49 65 -95 171 -256 432 -534 708 -755 92 -74 370 -265 386
-265 4 0 15 -6 23 -14 26 -22 298 -158 408 -204 146 -60 384 -141 459 -156 10
-2 57 -13 104 -25 109 -26 200 -43 299 -57 25 -3 57 -8 71 -10 163 -25 682
-25 842 1 13 2 46 7 73 10 71 10 87 13 115 18 14 3 43 8 65 12 104 19 292 68
435 115 178 57 568 235 660 300 15 11 33 20 39 20 6 0 11 5 11 10 0 6 5 10 10
10 15 0 220 141 330 227 152 118 324 280 450 422 36 41 70 79 76 85 6 6 48 61
94 121 150 197 277 405 383 628 26 53 47 99 47 102 0 2 11 28 24 57 57 127
151 421 182 573 17 81 54 301 59 350 4 33 9 71 11 85 9 47 11 525 3 605 -15
165 -21 220 -24 225 -2 3 -6 30 -10 60 -4 30 -22 123 -40 205 -53 232 -102
385 -197 610 -422 993 -1304 1752 -2346 2014 -121 31 -244 57 -312 66 -19 3
-46 7 -60 10 -13 2 -52 7 -86 11 -33 3 -74 8 -90 10 -32 5 -540 14 -546 9z
m1220 -1554 c12 -6 22 -9 22 -6 0 13 117 -58 155 -93 22 -21 94 -96 160 -167
66 -72 134 -144 150 -161 17 -17 62 -64 100 -106 39 -41 127 -135 196 -209 69
-74 148 -159 176 -191 57 -63 113 -172 138 -269 33 -126 13 -370 -40 -484 -13
-27 -44 -97 -70 -155 -26 -58 -58 -130 -72 -160 -14 -30 -62 -138 -108 -240
-46 -102 -115 -257 -155 -345 -40 -88 -81 -180 -92 -205 -11 -25 -34 -74 -50
-110 -28 -61 -49 -109 -53 -120 -1 -3 -11 -25 -22 -50 -71 -157 -261 -580
-295 -655 -110 -244 -112 -247 -186 -317 -83 -78 -166 -135 -242 -167 -72 -30
-206 -37 -281 -15 -121 36 -269 120 -338 193 -51 53 -283 299 -386 410 -38 41
-97 104 -130 139 -33 36 -80 86 -105 112 -25 26 -74 78 -109 116 -35 38 -117
125 -181 194 -65 69 -132 141 -150 160 -18 19 -82 88 -144 154 -189 201 -176
184 -176 230 0 22 4 46 8 52 22 32 894 346 958 345 94 -1 100 -5 390 -317 62
-65 144 -153 182 -194 l71 -74 35 78 c20 43 36 80 36 82 0 1 15 35 34 76 51
112 202 444 286 633 10 22 39 87 65 145 26 58 57 128 70 155 26 58 148 330
176 392 21 47 23 57 9 48 -5 -3 -121 -46 -257 -96 -137 -49 -255 -92 -263 -96
-8 -3 -19 -7 -25 -8 -11 -3 -168 -61 -286 -106 -42 -16 -79 -29 -83 -29 -5 0
-22 -6 -39 -14 -18 -7 -61 -24 -97 -36 -36 -12 -74 -26 -85 -30 -41 -16 -139
-53 -535 -196 -223 -81 -434 -158 -470 -171 -36 -14 -83 -30 -105 -38 -22 -7
-121 -43 -220 -80 -267 -100 -297 -96 -453 63 -119 122 -430 447 -498 522
-112 123 -124 141 -124 184 1 74 -30 59 515 256 215 78 399 146 410 151 11 4
139 52 285 105 146 53 299 108 340 124 41 16 201 74 355 130 154 55 289 105
300 110 23 10 299 111 395 145 36 13 101 37 145 53 331 123 426 156 470 162
75 10 268 4 293 -9z"/>
</g>
</svg>
