<?xml version="1.0" standalone="no"?>
<!DOCTYPE svg PUBLIC "-//W3C//DTD SVG 20010904//EN"
 "http://www.w3.org/TR/2001/REC-SVG-20010904/DTD/svg10.dtd">
<svg version="1.0" xmlns="http://www.w3.org/2000/svg"
 width="892.000000pt" height="892.000000pt" viewBox="0 0 892.000000 892.000000"
 preserveAspectRatio="xMidYMid meet">
<metadata>
Created by potrace 1.14, written by Peter Selinger 2001-2017
</metadata>
<g transform="translate(0.000000,892.000000) scale(0.100000,-0.100000)"
fill="#000000" stroke="none">
<path d="M4393 7395 c-17 -7 -44 -33 -60 -56 l-28 -43 1 -460 c1 -396 8 -891
14 -891 1 0 3 -8 5 -19 6 -32 27 -76 36 -76 5 0 9 -5 9 -10 0 -22 93 -97 130
-104 3 -1 10 -4 15 -8 6 -3 51 -22 100 -43 50 -20 104 -43 120 -50 122 -54
146 -65 151 -65 3 0 35 -14 71 -30 35 -17 66 -30 68 -30 3 0 28 -11 57 -24 29
-13 94 -40 143 -61 50 -21 124 -52 165 -71 68 -30 127 -55 140 -59 7 -2 31
-13 220 -95 91 -39 170 -72 175 -74 6 -1 25 -10 42 -19 18 -10 34 -17 35 -16
2 0 29 -11 62 -25 32 -14 60 -26 63 -26 2 0 23 -9 47 -20 24 -10 119 -51 212
-91 93 -39 187 -79 209 -89 112 -50 354 -150 364 -150 6 0 11 -4 11 -10 0 -5
5 -10 11 -10 6 0 70 -25 142 -56 141 -60 180 -76 185 -74 1 0 22 -11 47 -25
25 -13 45 -23 45 -20 0 3 135 -54 247 -106 24 -10 45 -19 49 -19 3 0 31 -12
62 -26 31 -14 74 -33 96 -43 l39 -17 -94 -38 c-52 -21 -101 -41 -110 -46 -8
-4 -82 -36 -165 -69 -82 -34 -198 -83 -259 -109 -60 -26 -112 -47 -115 -48 -3
0 -18 -6 -35 -14 -76 -33 -224 -95 -365 -152 -41 -17 -99 -41 -128 -54 -29
-13 -55 -24 -57 -24 -3 0 -24 -9 -48 -19 -23 -11 -175 -74 -337 -141 -162 -67
-311 -130 -330 -140 -19 -10 -39 -19 -45 -20 -5 -2 -20 -6 -33 -11 -13 -5 -25
-9 -28 -9 -2 0 -4 217 -3 483 2 439 1 488 -16 539 -31 100 -77 139 -265 221
-19 8 -60 26 -90 40 -30 14 -76 34 -101 45 -108 49 -475 203 -609 257 -80 31
-158 63 -175 70 -31 14 -51 18 -72 16 -18 -2 -72 -57 -81 -83 -5 -13 -8 -635
-7 -1383 l1 -1360 23 -85 c54 -206 122 -343 216 -435 76 -73 103 -91 215 -138
71 -30 193 -49 325 -51 163 -2 188 4 410 99 26 12 531 223 610 255 17 7 54 23
83 36 29 13 55 24 57 24 2 0 186 76 407 169 581 243 612 256 621 253 4 -1 7 2
7 7 0 5 11 12 25 15 14 4 49 17 78 30 47 21 84 37 97 41 3 1 16 6 30 12 14 6
97 41 185 77 88 37 179 76 202 86 24 11 45 20 47 20 2 0 21 8 42 17 22 9 41
17 44 18 3 0 27 11 54 23 27 12 51 22 53 22 4 0 115 46 223 93 85 37 314 236
379 330 38 56 94 157 86 157 -3 0 1 10 9 23 8 12 26 63 40 113 l27 92 -3 828
-3 829 -27 74 c-41 111 -94 183 -226 304 -23 20 -44 37 -48 37 -4 0 -14 8 -23
18 -29 33 -76 60 -166 97 -50 21 -108 45 -130 55 -22 10 -132 57 -245 104
-113 48 -216 92 -230 98 -14 6 -38 17 -55 24 -16 8 -75 32 -130 55 -55 23
-118 49 -140 59 -22 10 -112 48 -200 85 -88 37 -173 73 -189 81 -16 8 -33 14
-37 14 -4 0 -36 13 -71 29 -35 16 -166 72 -293 125 -126 54 -243 103 -260 110
-27 12 -99 43 -190 81 -62 26 -238 101 -270 115 -11 5 -69 29 -130 55 -60 25
-123 52 -140 59 -16 8 -118 51 -225 96 -107 45 -208 88 -225 95 -43 19 -126
55 -492 209 -177 75 -327 136 -335 136 -7 -1 -27 -7 -45 -15z"/>
<path d="M2868 6165 c-3 -3 -52 -11 -118 -20 -19 -2 -88 -21 -173 -46 -37 -12
-73 -22 -80 -23 -7 -2 -19 -6 -27 -9 -8 -4 -49 -18 -90 -32 -151 -53 -356
-176 -523 -315 -4 -4 45 -26 110 -50 112 -41 290 -118 323 -140 8 -5 32 -19
52 -30 96 -52 236 -186 291 -279 137 -233 146 -380 34 -573 -55 -96 -103 -128
-242 -163 -62 -16 -239 -5 -310 18 -11 3 -31 8 -45 11 -42 7 -154 36 -175 45
-11 5 -47 19 -80 31 -33 12 -69 26 -80 30 -17 8 -45 17 -80 27 -5 1 -56 16
-111 32 -56 16 -117 32 -135 35 -65 11 -94 16 -114 21 -142 31 -316 24 -484
-20 -34 -8 -72 -20 -84 -25 -28 -11 -61 -23 -67 -25 -18 -4 -105 -47 -110 -53
-3 -5 -23 -16 -45 -26 -22 -11 -42 -22 -45 -25 -3 -4 -28 -21 -56 -39 -69 -43
-75 -49 -251 -223 l-152 -150 82 7 c45 5 176 8 292 8 223 0 339 -14 475 -57
36 -11 67 -21 70 -22 52 -16 261 -120 319 -159 29 -20 55 -36 57 -36 6 0 176
-122 196 -140 10 -9 34 -25 55 -36 21 -12 99 -54 173 -95 162 -90 485 -249
505 -249 3 0 24 -9 48 -19 23 -11 69 -29 102 -40 33 -12 67 -25 75 -28 8 -3
17 -7 20 -8 7 -2 93 -28 105 -31 45 -13 93 -26 110 -29 11 -2 20 -4 20 -5 0
-2 9 -4 20 -6 11 -1 52 -9 90 -18 63 -13 107 -20 200 -31 125 -15 351 -21 522
-15 l62 3 -17 23 c-9 13 -20 24 -24 24 -5 0 -8 7 -8 15 0 8 -4 15 -8 15 -11 0
-80 118 -130 221 -60 125 -136 361 -157 489 -3 19 -8 42 -11 51 -2 9 -7 34
-10 55 -3 22 -7 50 -9 64 -2 14 -7 50 -11 80 -3 30 -8 73 -11 95 -7 56 -6 465
0 552 5 61 12 116 32 258 2 11 11 56 20 100 9 44 18 87 20 96 12 59 88 294
110 339 7 14 34 70 60 125 27 55 51 102 55 105 3 3 17 23 30 45 13 22 32 50
44 63 29 33 16 47 -89 93 -49 21 -99 44 -110 49 -17 8 -128 40 -197 56 -27 7
-304 15 -310 9z"/>
<path d="M1467 3493 c-2 -1 -18 -5 -37 -8 -19 -4 -39 -8 -45 -9 -5 -1 -16 -5
-22 -9 -7 -5 -13 -6 -13 -3 0 3 -33 -6 -72 -20 -40 -13 -75 -25 -78 -26 -13
-2 -29 -7 -85 -26 -137 -47 -297 -86 -410 -99 -205 -24 -433 21 -590 116 -82
50 -105 60 -105 48 0 -6 9 -23 20 -37 11 -14 20 -28 20 -32 0 -4 7 -16 14 -25
8 -10 33 -43 55 -73 88 -119 275 -300 310 -300 5 0 11 -3 13 -8 11 -26 352
-152 452 -167 17 -3 45 -7 61 -10 87 -14 120 -16 225 -16 119 -1 167 6 279 40
73 22 155 97 196 178 51 102 50 212 -2 319 -32 66 -135 173 -164 171 -11 -1
-21 -2 -22 -4z"/>
</g>
</svg>
