<?xml version="1.0" standalone="no"?>
<!DOCTYPE svg PUBLIC "-//W3C//DTD SVG 20010904//EN"
 "http://www.w3.org/TR/2001/REC-SVG-20010904/DTD/svg10.dtd">
<svg version="1.0" xmlns="http://www.w3.org/2000/svg"
 width="700.000000pt" height="700.000000pt" viewBox="0 0 700.000000 700.000000"
 preserveAspectRatio="xMidYMid meet">
<metadata>
Created by potrace 1.14, written by Peter Selinger 2001-2017
</metadata>
<g transform="translate(0.000000,700.000000) scale(0.100000,-0.100000)"
fill="#000000" stroke="none">
<path d="M3278 6995 c-1 -1 -42 -5 -89 -9 -47 -4 -95 -8 -106 -10 -11 -3 -44
-7 -74 -11 -313 -38 -709 -158 -1024 -311 -180 -87 -448 -247 -555 -331 -8 -6
-51 -40 -95 -74 -353 -275 -673 -651 -897 -1054 -49 -87 -148 -289 -148 -301
0 -2 -9 -23 -20 -47 -57 -123 -157 -435 -186 -582 -2 -11 -10 -54 -19 -95 -22
-115 -30 -160 -41 -255 -26 -230 -26 -667 1 -826 2 -13 6 -46 9 -74 9 -78 22
-152 51 -285 21 -96 91 -339 114 -395 5 -11 25 -65 46 -120 63 -166 249 -531
312 -610 4 -6 34 -49 65 -95 171 -256 432 -534 708 -755 92 -74 370 -265 386
-265 4 0 15 -6 23 -14 26 -22 298 -158 408 -204 146 -60 384 -141 459 -156 10
-2 57 -13 104 -25 109 -26 200 -43 299 -57 25 -3 57 -8 71 -10 163 -25 682
-25 842 1 13 2 46 7 73 10 71 10 87 13 115 18 14 3 43 8 65 12 104 19 292 68
435 115 178 57 568 235 660 300 15 11 33 20 39 20 6 0 11 5 11 10 0 6 5 10 10
10 15 0 220 141 330 227 152 118 324 280 450 422 36 41 70 79 76 85 6 6 48 61
94 121 150 197 277 405 383 628 26 53 47 99 47 102 0 2 11 28 24 57 57 127
151 421 182 573 17 81 54 301 59 350 4 33 9 71 11 85 9 47 11 525 3 605 -15
165 -21 220 -24 225 -2 3 -6 30 -10 60 -4 30 -22 123 -40 205 -53 232 -102
385 -197 610 -422 993 -1304 1752 -2346 2014 -121 31 -244 57 -312 66 -19 3
-46 7 -60 10 -13 2 -52 7 -86 11 -33 3 -74 8 -90 10 -32 5 -540 14 -546 9z
m-1158 -1328 c58 -24 206 -88 330 -140 1109 -470 1491 -632 1525 -647 22 -10
139 -59 260 -110 121 -51 248 -105 283 -121 35 -16 66 -29 68 -29 5 0 163 -66
239 -100 22 -10 89 -39 149 -64 149 -63 272 -163 346 -280 61 -96 62 -109 62
-786 l1 -615 -32 -93 c-52 -154 -131 -259 -285 -376 -56 -43 -116 -73 -291
-146 -121 -51 -233 -98 -250 -105 -16 -8 -97 -41 -180 -75 -82 -34 -163 -67
-180 -75 -16 -7 -167 -70 -335 -140 -168 -70 -390 -163 -495 -207 -104 -43
-255 -107 -335 -140 -80 -33 -158 -66 -175 -73 -16 -7 -68 -29 -115 -48 l-84
-36 -141 4 c-150 4 -214 17 -301 61 -106 54 -187 163 -246 334 l-33 95 -3
1058 -2 1058 20 30 c12 16 31 32 44 35 25 6 370 -130 651 -256 22 -10 90 -41
152 -68 212 -96 205 -77 205 -564 l0 -377 37 15 c20 9 52 22 71 29 39 14 218
89 265 110 42 19 622 261 725 302 47 19 109 45 138 59 29 13 55 24 58 24 3 0
20 6 37 14 28 13 142 61 262 110 l40 17 -95 41 c-52 22 -108 46 -125 53 -16 7
-77 33 -135 58 -122 52 -1061 453 -1105 472 -16 7 -46 19 -65 28 -19 8 -64 27
-100 42 -36 15 -81 35 -100 43 -19 9 -37 16 -40 17 -3 1 -16 7 -30 12 -14 6
-106 46 -205 88 -99 42 -193 83 -210 90 -16 8 -111 48 -210 90 -99 42 -190 83
-203 91 -42 27 -80 92 -87 147 -10 81 -13 964 -4 1005 11 49 61 95 97 89 15
-3 74 -25 132 -50z"/>
</g>
</svg>
